<?xml version="1.0" encoding="UTF-8"?>
<svg version="1.1" xmlns="http://www.w3.org/2000/svg" width="147" height="93">
<path d="M0 0 C48.51 0 97.02 0 147 0 C147 30.69 147 61.38 147 93 C98.49 93 49.98 93 0 93 C0 62.31 0 31.62 0 0 Z " fill="#0B0F19" transform="translate(0,0)"/>
<path d="M0 0 C18 0 18 0 24 4 C26.4610472 7.6915708 26.80988892 10.71568763 26 15 C24.00802519 18.50127879 21.34497678 20.77001548 18 23 C18.845625 23.928125 19.69125 24.85625 20.5625 25.8125 C24.03050839 29.8146803 26.69198049 34.19520387 29.38671875 38.7421875 C30.86765017 41.28257192 30.86765017 41.28257192 34 42 C33.34 44.31 32.68 46.62 32 49 C30.02 49 28.04 49 26 49 C25.8040625 48.42894531 25.608125 47.85789063 25.40625 47.26953125 C23.44451133 41.95085184 21.06385672 36.91943101 18.25 32 C17.32960938 30.3603125 17.32960938 30.3603125 16.390625 28.6875 C13.66813422 25.11850998 13.66813422 25.11850998 6 24 C6 29.94 6 35.88 6 42 C4.02 42 2.04 42 0 42 C0 28.14 0 14.28 0 0 Z " fill="#ECECED" transform="translate(103,29)"/>
<path d="M0 0 C3.80387969 3.35636443 5.93241897 6.45566264 6.62109375 11.53125 C6.60175781 12.7996875 6.58242188 14.068125 6.5625 15.375 C6.56121094 16.6434375 6.55992188 17.911875 6.55859375 19.21875 C5.95824042 24.28118893 4.20046982 28.6485864 0.125 31.875 C-4.50095436 33.41698479 -9.04411233 33.37792232 -13.875 32.875 C-18.33382725 30.45980191 -19.92792597 27.46684959 -21.875 22.875 C-22.70662026 16.45073351 -23.4345789 9.13577283 -19.625 3.5625 C-14.04982215 -1.88596927 -7.30681698 -2.85918925 0 0 Z " fill="#0D111B" transform="translate(45.875,34.125)"/>
<path d="M0 0 C5.01132083 3.69883204 8.73236135 7.9383564 10.625 13.9375 C11.43209871 21.79263516 11.69203752 29.49846463 6.625 35.9375 C2.79067144 40.02394879 -1.44477004 42.60907539 -7.05859375 43.23828125 C-13.48275609 43.26561811 -18.17084585 43.06444561 -22.99609375 38.35546875 C-28.9840023 31.7644615 -29.83523827 26.21798678 -29.6875 17.390625 C-29.12786456 11.2066534 -27.00886475 7.14359408 -22.375 3.0625 C-15.38965619 -1.88545186 -8.26523793 -2.60201935 0 0 Z M-20.375 7.9375 C-24.84078036 13.90967996 -24.07090903 20.85605208 -23.375 27.9375 C-21.96258887 32.44272934 -19.38990239 35.47008219 -15.375 37.9375 C-10.53990842 38.67249157 -5.9018833 38.57370138 -1.375 36.6875 C2.71870627 33.10550702 4.47358975 30.07461849 4.86328125 24.57421875 C4.88777344 23.27097656 4.91226563 21.96773437 4.9375 20.625 C4.97488281 19.32949219 5.01226562 18.03398438 5.05078125 16.69921875 C4.46480878 11.52223257 2.36382829 8.47176025 -1.5 5.0625 C-8.34572846 2.38373669 -14.83015715 2.93361742 -20.375 7.9375 Z " fill="#F0F0F0" transform="translate(47.375,29.0625)"/>
<path d="M0 0 C1.22847656 0.00644531 2.45695312 0.01289063 3.72265625 0.01953125 C6.9375 0.1875 6.9375 0.1875 9.9375 1.1875 C9.9375 3.1675 9.9375 5.1475 9.9375 7.1875 C9.22464844 7.02894531 8.51179688 6.87039062 7.77734375 6.70703125 C1.73847512 5.60225886 -3.96025419 5.1739172 -9.5625 7.875 C-12.98642214 11.04212798 -14.85520197 13.58195644 -15.4609375 18.2734375 C-15.45237988 27.17588938 -15.45237988 27.17588938 -12.0625 35.1875 C-8.31639265 37.9725641 -5.69130801 38.55558184 -1.0625 38.4375 C0.4534375 38.41429688 0.4534375 38.41429688 2 38.390625 C4.7310824 38.20177356 7.27166785 37.79515292 9.9375 37.1875 C9.9375 38.8375 9.9375 40.4875 9.9375 42.1875 C3.25605753 45.31048335 -4.50398739 45.2874039 -11.5 43.125 C-16.46377354 39.37190293 -20.1511777 35.17572538 -22.0625 29.1875 C-22.89888411 21.59196526 -22.91486292 14.39795867 -18.0625 8.1875 C-12.47565575 2.3932555 -8.17528257 -0.09456163 0 0 Z " fill="#EDEDEE" transform="translate(85.0625,27.8125)"/>
<path d="M0 0 C10.47866595 -0.36983527 10.47866595 -0.36983527 12.828125 1.296875 C14.81834173 4.18932331 14.41568583 6.6151297 14 10 C12.625 12.4375 12.625 12.4375 10 14 C6.59264014 14.32578206 3.43853858 14.18097571 0 14 C0 9.38 0 4.76 0 0 Z " fill="#0D111A" transform="translate(109,34)"/>
<path d="M0 0 C-0.66 2.31 -1.32 4.62 -2 7 C-3.98 7 -5.96 7 -8 7 C-8.66 4.69 -9.32 2.38 -10 0 C-6.33694766 -0.74926071 -3.57644848 -1.2380014 0 0 Z " fill="#7D8184" transform="translate(137,71)"/>
</svg>
